<?xml version="1.0" encoding="UTF-8"?>
<!DOCTYPE svg PUBLIC "-//W3C//DTD SVG 1.0//EN" "http://www.w3.org/TR/2001/REC-SVG-20010904/DTD/svg10.dtd">
<!-- Creator: CorelDRAW 2018 (64-Bit) -->
<svg xmlns="http://www.w3.org/2000/svg" xml:space="preserve" width="91.2674mm" height="95.5853mm" version="1.0" style="shape-rendering:geometricPrecision; text-rendering:geometricPrecision; image-rendering:optimizeQuality; fill-rule:evenodd; clip-rule:evenodd"
viewBox="0 0 8988.6 9413.86"
 xmlns:xlink="http://www.w3.org/1999/xlink">
 <defs>
  <style type="text/css">
   <![CDATA[
    .fil1 {fill:black}
    .fil0 {fill:#FEFEFE}
    .fil2 {fill:black;fill-rule:nonzero}
   ]]>
  </style>
 </defs>
 <g id="Layer_x0020_1">
  <metadata id="CorelCorpID_0Corel-Layer"/>
  <path class="fil0" d="M4494.29 0l4076.32 2353.47 0 4706.91 -4076.32 2353.47 -4076.31 -2353.47 0 -4706.91 4076.31 -2353.47zm0 120.07l1986.17 1146.72 1986.18 1146.71 0 2293.43 0 2293.42 -1986.18 1146.72 -1986.17 1146.71 -1986.16 -1146.71 -1986.17 -1146.72 0 -2293.42 0 -2293.43 1986.17 -1146.71 1986.16 -1146.72z"/>
  <path class="fil0" d="M4497.13 324.87l3757.12 2169.18 0 4338.35 -3757.12 2169.18 -3757.13 -2169.18 0 -4338.35 3757.13 -2169.18zm0 62.34l1851.57 1069 1851.57 1069.01 0 2138 0 2138 -1851.57 1069.01 -1851.57 1069 -1851.58 -1069 -1851.56 -1069.01 0 -2138 0 -2138 1851.56 -1069.01 1851.58 -1069z"/>
  <polygon class="fil0" points="4495.52,734.37 6213.78,1726.41 7932.02,2718.43 7932.02,4702.5 7932.02,6686.57 6213.78,7678.6 4495.52,8670.63 2777.27,7678.6 1059.02,6686.57 1059.02,4702.5 1059.02,2718.43 2777.27,1726.41 "/>
  <polygon class="fil1" points="4507.45,8023.09 4940.77,7598.95 5374.08,7174.82 4507.45,7174.82 3640.83,7174.82 4074.14,7598.95 "/>
  <path class="fil0" d="M7792.15 1421.38l1196.45 690.77 0 1430.78 -114.65 0 0 -1364.59 -1081.8 -624.57 0 -132.4zm1196.45 4449.54l0 1430.79 -1196.45 690.77 0 -132.38 1081.8 -624.59 0 -1364.6 114.65 0zm-7905.24 2056.28l-1083.36 -625.49 0 -1430.79 114.65 0 0 1364.6 968.71 559.29 0 132.39zm-1083.36 -4384.26l0 -1430.78 1083.36 -625.49 0 132.4 -968.71 559.28 0 1364.6 -114.65 0z"/>
  <g id="_1817903531328">
   <path class="fil2" d="M2419.86 2882.17c35.64,0 60.82,30.22 76.31,91.02 1.16,24.8 1.94,43 1.94,54.24l0 1844.17c0,73.59 -28.67,154.94 -85.99,244.03 -93.74,108.84 -190.97,163.46 -291.68,163.46 -156.49,0 -356.36,-103.81 -599.23,-311.04 0,-0.78 -12.78,-13.95 -38.73,-39.51 1.56,0 2.32,-1.16 2.32,-3.49 76.7,16.65 127.44,26.73 153.39,30.6l0 -1944.1 -188.64 -101.87 0 -4.65 24.02 -4.65c207.23,-5.03 522.91,-11.23 946.29,-18.2zm-474.11 46.87l0 2211.38c8.13,27.5 39.9,55 95.29,82.89 20.53,5.43 35.25,8.13 44.16,8.13 59.65,0 103.8,-41.83 131.7,-124.72l0 -1998.72c0,-89.86 -34.86,-150.29 -104.58,-181.27 -18.59,-6.2 -42.22,-10.08 -70.11,-11.62 -35.63,1.55 -67.79,6.19 -96.45,13.95zm593.42 55.39c35.63,15.11 55,58.1 57.71,129.37l0 1851.92c0,72.82 -28.28,154.94 -84.83,246.35 -55.39,63.52 -101.87,103.04 -139.83,118.13 -47.65,30.22 -96.84,45.32 -147.58,45.32l-7.75 0c-95.29,0 -204.9,-38.35 -329.24,-114.66l4.65 0c88.7,39.51 172.36,58.89 251.77,58.89 0,3.87 12.78,6.58 37.57,8.13 38.73,0 75.15,-20.91 110.01,-62.36 101.48,-52.29 172.76,-134.4 213.43,-246.35 20.52,-66.62 30.6,-111.56 30.6,-135.18l0 -1891.42 -3.49 -4.65 6.97 -3.49zm-507.43 3.49l104.59 0c4.64,2.32 10.45,10.08 18.2,23.63l-4.65 2.32 -21.69 0c-57.33,3.87 -86,9.68 -86,17.05l0 2148.24 -1.16 0c-22.85,-9.69 -42.22,-25.18 -58.1,-46.49l0 -2137c0,-5.04 16.27,-7.75 48.8,-7.75zm1465.97 140.61c199.48,248.28 299.42,483.8 299.42,706.91l0 2.32c0,3.1 0.78,6.59 2.32,10.46 -8.9,80.96 -55.39,181.28 -139.45,301.74 -107.68,129.38 -225.04,244.81 -352.87,345.9 256.42,-21.69 428.41,-32.92 516.33,-32.92 0,1.56 0.77,2.32 1.93,2.32 -25.56,62.76 -38.34,98.39 -38.34,106.91l0 1212.01c0,43.78 23.23,73.6 70.1,89.48 18.21,4.65 32.54,6.97 43.38,6.97l7.75 0c57.71,0 101.87,-30.6 132.86,-91.03 34.86,-61.2 52.3,-135.58 52.3,-223.5 0,-15.11 -3.49,-55.78 -10.46,-122.41l103.42 0 3.49 3.1c1.55,40.28 2.32,72.44 2.32,96.83l0 33.7c0,169.66 -62.36,279.66 -187.48,330.41 -25.57,12.78 -55.39,19.36 -89.47,19.36l-34.09 0c-153.39,0 -254.1,-58.88 -301.74,-175.86 -22.86,-46.87 -34.09,-73.59 -34.09,-79.4l0 -1154.3c-56.94,3.87 -148.74,7.36 -275.79,10.07l0 495.03c-29.45,108.85 -72.83,182.45 -129.38,221.18 -42.61,30.22 -90.64,45.31 -144.1,45.31 -56.94,0 -125.89,-16.65 -207.62,-49.96l0 -4.26c40.67,-4.65 92.19,-22.46 154.17,-53.45 28.66,-23.63 43,-37.97 43,-43l0 -490.38 -0.78 0c-67.4,37.96 -111.56,56.55 -131.7,56.55l-11.62 0c-78.63,-9.68 -117.76,-48.03 -117.76,-114.26l0 -41.06c0,-51.52 17.43,-81.35 51.91,-89.47l5.81 0c12.77,0 41.06,8.52 84.05,25.95l2.32 0 0 7.74c-49.96,41.84 -75.15,77.09 -75.15,105.74l0 15.89c0,20.52 20.92,34.47 62.76,41.84 30.21,0 73.59,-15.89 130.15,-47.65l0 -1098.52 -161.14 -13.56 0 -4.26c392.77,-217.3 617.05,-338.54 673.21,-364.49zm-228.14 169.27l0 1114.4c208.78,-174.31 312.97,-346.29 312.97,-516.33l0 -9.3c0,-86.38 -25.95,-192.91 -78.24,-319.95 -55,-113.5 -133.25,-202.97 -234.73,-268.82zm32.92 68.95l2.32 0c14.33,10.07 30.98,25.57 49.96,46.48l0 870.77c0,1.93 -16.65,18.98 -49.96,50.74l-2.32 -5.43 0 -962.56zm439.25 75.15c95.29,163.46 142.93,326.53 142.93,490 -6.97,76.69 -41.84,163.07 -104.58,259.91 -32.54,49.19 -95.68,122.01 -189.42,218.08 -19.76,21.69 -34.85,32.92 -45.31,32.92l-129.38 8.91 0 -1.16c122.41,-111.17 207.62,-197.94 255.27,-259.92 92.19,-121.63 145.26,-230.47 158.81,-326.53l3.49 -15.11c0,-124.72 -30.6,-259.52 -91.8,-404.78l0 -2.32zm-792.13 121.24l3.09 0 0 21.7 -3.09 3.49 -24.02 -1.16 -13.55 0 0 -2.32c0,-4.65 12.39,-11.62 37.57,-21.7zm-86.38 983.87l8.13 0c17.82,0 45.32,9.68 81.34,28.28l0 5.81c0,12.01 -29.82,25.95 -89.47,41.06l-10.07 0c-17.43,-2.32 -26.35,-6.59 -26.35,-12.78l0 -6.59c0,-13.55 12.4,-32.15 36.41,-55.77zm1028.02 2.32l19.37 0 4.65 3.49c-26.73,61.98 -39.9,95.29 -39.9,99.93l0 1185.68c0,2.32 -0.78,3.49 -2.32,3.49 -32.92,-10.46 -49.58,-25.18 -49.58,-44.16 -1.56,0 -2.32,-5.43 -2.32,-15.89l0 -1204.26c0,-16.65 7.74,-24.79 23.63,-24.79 9.3,-2.32 24.79,-3.49 46.48,-3.49zm-467.53 6.97l0 3.09c0,0.78 -8.91,8.91 -27.11,24.02 64.3,-5.43 101.48,-8.91 111.17,-10.08l2.32 4.26 0 28.66c0,5.04 -2.32,7.75 -6.97,7.75 -51.91,0 -101.49,0.78 -148.36,2.32l0 499.3c-22.08,93.73 -61.2,163.84 -116.98,209.93 -46.09,34.1 -95.67,51.13 -148.73,51.13l-6.59 0c-60.82,0 -129.77,-17.04 -208,-51.13l0 -4.64c6.19,0 17.43,-2.72 34.09,-7.75 27.5,6.59 56.55,10.08 87.53,10.08 145.26,0 245.59,-90.25 300.59,-271.15 3.87,-10.46 5.81,-18.2 5.81,-22.85l0 -464.05 2.32 -4.65c55.77,-0.77 95.67,-1.93 118.91,-4.25zm-524.09 173.53c13.56,7.36 31.38,13.17 53.06,17.04l0 39.51c0,1.55 -3.09,3.87 -10.07,6.97 -52.3,0 -89.87,-18.21 -113.5,-54.62l4.65 -1.16 21.7 0c12.01,0 26.72,-2.32 44.15,-7.74zm1332.1 801.03l42.22 0c4.25,0.78 6.58,2.32 6.58,4.65 0.78,60.43 1.16,103.43 1.16,128.22 0,168.11 -61.58,278.12 -184.76,330.4 -33.32,12.02 -53.84,17.83 -61.59,17.83l-21.3 0c-12.78,0 -23.24,1.16 -30.6,3.49 -108.45,0 -188.25,-23.64 -239.77,-71.27l2.32 0c43.38,11.23 84.05,17.04 122.78,17.04l64.69 0c30.99,4.26 51.52,6.59 61.21,6.59l2.32 0c63.52,0 111.56,-39.12 144.09,-117.75 56.56,-60.82 85.22,-147.2 85.22,-259.92l0 -54.62c0.78,-3.09 2.32,-4.65 5.43,-4.65zm399.98 -2498.78l4.65 0c-8.13,107.29 -12.4,180.11 -12.4,218.07l0 1898.41c0,7.36 18.59,44.93 55.39,112.32l-2.32 5.81c-155.72,-1.55 -290.12,-4.25 -402.84,-8.13 0,-1.55 -0.78,-2.32 -1.94,-2.32 17.82,-25.56 42.61,-59.64 73.6,-101.86l0 -1665.99 -181.67 13.55 0 -2.32c3.1,-3.1 90.64,-65.07 262.24,-185.92 85.6,-84.06 139.83,-150.68 163.46,-199.88 27.89,-46.87 41.84,-73.98 41.84,-81.72zm95.29 90.64l1.16 0 -1.16 4.65c-6.59,113.5 -10.08,181.27 -10.08,203.35l0 1909.63c0,5.42 17.82,42.22 53.46,110.01l-3.49 4.65 -168.12 0c-0.77,0 -1.16,-1.56 -1.16,-4.65 -1.55,0 -2.31,1.55 -2.31,4.65 -21.7,-3.1 -34.1,-4.65 -37.19,-4.65 -48.42,0 -113.11,-0.78 -194.07,-1.94l-2.32 -5.81c1.56,0 13.95,-15.11 37.57,-45.32 1.56,0 3.88,0.78 7.75,2.32 122.01,0.78 223.89,1.16 306.39,1.16l26.35 0c-51.52,-98.39 -77.47,-150.29 -77.47,-155.71l0 -1905.37c0,-2.32 21.69,-41.06 64.69,-116.98zm-418.73 428.02l3.49 2.32 0 30.6c0,5.42 -19.37,7.74 -57.71,7.74l0 -3.09c0,0 18.2,-12.78 54.23,-37.57zm1269.58 -501.62c233.57,254.1 350.55,483.41 350.55,687.54l0 30.6c0,138.67 -41.84,288.58 -125.9,449.72 -25.17,47.64 -78.24,115.43 -159.97,202.97 -109.23,94.51 -199.87,159.97 -272.31,196.38l0 527.57 99.55 110c-1.16,0 -1.94,0.78 -1.94,2.32 -106.91,1.56 -184.38,2.32 -232.79,2.32 -58.88,0 -151.07,-0.77 -275.79,-2.32l0 -2.32 129.37 -101.86 0 -1767.09c-3.87,0 -52.3,-16.27 -145.26,-48.8l0 -2.32c3.1,-3.49 90.25,-39.51 262.24,-107.69 200.25,-96.84 324.59,-155.72 372.24,-177.02zm-207.62 146.42l0 1303.81c106.52,-49.96 194.06,-154.16 261.85,-312.98 44.16,-96.05 65.85,-194.44 65.85,-295.15l0 -13.56c0,-5.42 0.78,-10.07 2.32,-13.55l-2.32 -15.11 0 -12.4c0,-219.24 -99.93,-443.12 -299.42,-671.66 -8.52,6.58 -17.82,17.04 -28.28,30.6zm55.39 53.45c6.19,5.81 16.65,19.37 31.76,40.67l0 1105.49c-27.89,26.35 -46.09,39.9 -54.23,40.67l0 -1175.6c0,-2.32 7.36,-6.19 22.46,-11.24zm-374.56 161.14l2.32 5.42 0 9.3 -2.32 5.43c-11.24,-5.03 -18.21,-7.75 -21.3,-7.75l0 -4.65 21.3 -7.74zm839.77 20.14c85.6,136.34 128.21,272.69 128.21,409.81 0,168.12 -51.52,337 -155.32,507.43 -30.99,49.19 -85.6,111.56 -163.47,187.08 -76.31,64.3 -144.1,113.5 -202.97,147.58 -21.3,11.24 -34.47,20.14 -39.9,25.95l0 476.83 -3.49 0c-17.04,-17.43 -34.09,-36.03 -50.74,-55.78l0 -490.38c73.98,-43 153,-99.93 237.06,-171.21 97.61,-96.06 159.97,-173.14 187.09,-231.25 92.57,-165.78 138.67,-328.47 138.67,-488.06 0,-96.83 -25.18,-202.97 -75.15,-318.01zm-376.5 1860.04l44.15 49.97 0 3.49 -232.79 4.65 -278.89 -4.65 0 -3.49c0.78,-1.55 21.3,-17.43 62.36,-47.65 34.86,0 72.44,0.78 113.5,2.32 143.71,-3.09 240.93,-4.65 291.68,-4.65zm1576.74 -2350.04l0 4.26 -91.8 140.99 0 777.41c68.17,-53.84 142.16,-80.57 222.33,-80.57l4.65 0c92.97,0 152.61,35.25 179.34,106.52 8.13,32.54 12.4,69.72 12.4,111.17l0 2.32c0,58.1 -12.4,94.51 -37.57,108.84 -22.46,9.3 -46.49,13.56 -71.27,13.56 0,-1.55 -1.55,-1.94 -4.65,-1.94 6.19,-56.94 8.91,-99.55 8.91,-128.59l0 -18.98c0,-51.52 -18.59,-86 -55.4,-103.43 -30.98,-9.68 -67.39,-14.71 -108.84,-14.71l-9.3 0c-54.62,0 -101.49,15.88 -140.61,47.64l0 1040.81 91.8 -64.7 2.32 0 0 3.1c-100.71,167.34 -154.55,255.27 -162.3,263.4 -49.19,47.64 -128.99,83.28 -239.38,106.51 -22.08,4.65 -37.57,6.97 -46.49,6.97 -80.18,0 -184.38,-36.41 -312.2,-108.84 -37.96,-16.66 -56.55,-27.12 -56.55,-30.61 3.49,0 25.95,-25.95 66.63,-77.47 -1.16,-60.42 -1.94,-103.03 -1.94,-128.21 0,-89.09 38.35,-145.26 115.43,-167.72l185.15 -18.2 0 3.49c-38.73,40.67 -70.88,75.53 -96.45,104.19l0 319.95c0,22.86 14.33,45.32 43,67.01 18.98,6.97 30.98,10.46 36.41,10.46 40.28,0 81.34,-24.4 123.56,-72.82l0 -1057.46 -3.1 0c-66.63,126.27 -153.78,212.27 -261.07,258.74 -25.95,6.59 -46.87,11.24 -63.52,13.56 -80.96,0 -130.93,-63.52 -149.91,-190.58l0 -926.15c-58.11,-7.75 -95.29,-11.24 -111.17,-11.24l0 -3.49c135.18,-103.8 251,-185.54 347.07,-245.19l2.32 2.32 0 1214.35c41.06,-7.75 103.04,-51.13 186.32,-130.54 30.21,-31.76 51.52,-56.55 64.69,-73.98l0 -878.12c49.19,-68.17 128.21,-119.69 237.06,-154.55 27.11,-12.78 58.49,-25.95 94.12,-39.51zm89.87 87.16l0 4.65 -93.36 140.6 0 594.58c0,3.1 -17.43,13.56 -51.9,30.99l-2.32 -6.97 0 -694.52c0,-10.46 35.25,-27.89 106.52,-52.3 9.3,-5.81 22.85,-11.62 41.06,-17.04zm-586.84 58.1l3.49 4.26 0 1037.32c-6.19,7.75 -23.63,19.76 -52.29,36.41l-3.49 -4.65 0 -1038.1c0,-0.77 17.43,-12.78 52.29,-35.25zm593.42 806.85c49.19,0 79.03,17.82 89.87,53.45 -2.32,0 -3.49,0 -3.49,0.78 -15.89,-0.78 -27.89,-0.78 -36.41,-0.78 -55.78,0 -105.74,14.72 -149.91,44.16l0 847.52c0,1.56 -16.65,13.95 -49.96,37.58l-4.26 0 0 -950.95c19.36,-15.89 37.19,-24.02 53.06,-24.02l1.16 0 0 46.49c53.06,-36.03 86.38,-54.23 99.93,-54.23zm257.59 18.2l2.32 0c40.28,31.76 60.04,90.25 60.04,175.86 0,55.78 -12.01,92.97 -36.03,111.17 -22.07,9.68 -47.25,14.72 -76.31,14.72l0 -2.32c0,-12.78 0.39,-35.64 1.16,-68.18 37.19,-21.69 55.78,-67.01 55.78,-135.95l0 -18.21c0,-23.63 -2.32,-49.19 -6.97,-77.09zm-732.87 327.7l1.94 4.65 0 111.16c-74.76,72.05 -144.48,107.69 -208.78,107.69 -36.79,0 -68.95,-16.65 -96.45,-49.58l0 -2.32 1.16 0c87.93,0 179.34,-50.74 274.63,-152.23 4.65,-3.09 13.55,-9.3 27.5,-19.36zm0 581.02l1.94 4.65 0 13.55 -80.57 84.06 0 273.47c0,1.56 -0.77,2.32 -3.09,2.32l-10.46 0c-27.89,-6.97 -41.84,-22.46 -41.84,-46.48l0 -300.97c10.46,-15.11 23.63,-22.46 39.51,-22.46l94.51 -8.13zm469.47 145.26l3.49 0 0 2.32c-98.39,164.24 -153.38,254.1 -165.4,269.98 -49.19,47.25 -134.02,82.5 -254.49,106.91 -14.33,3.1 -25.56,4.65 -34.09,4.65l-1.93 0c-80.96,0 -191.74,-40.28 -331.57,-120.47 -20.52,-8.13 -30.6,-13.95 -30.6,-17.04l4.65 0c101.1,56.17 192.51,84.05 273.47,84.05l12.4 0c17.42,17.43 36.41,25.96 56.55,25.96 38.73,0 81.34,-25.18 128.21,-75.92 75.92,-31.76 126.66,-75.15 152.23,-130.53 58.1,-98.39 89.09,-147.58 91.8,-147.58l1.16 0 0 63.52 94.12 -65.85z"/>
   <path class="fil2" d="M1463.64 6173.7l0 340.88 59.33 0 0 -122.55c0,-35.98 24.32,-65.64 59.33,-65.64 31.6,0 54.46,18.48 54.46,62.24l0 125.94 59.32 0 0 -126.44c0,-70.51 -30.15,-116.71 -98.22,-116.71 -27.23,0 -53.5,8.27 -74.89,35.99l0 -133.72 -59.33 0zm493.57 96.28c-76.35,0 -124,56.41 -124,124.98 0,69.05 46.68,124.97 124.49,124.97 77.8,0 124.98,-55.92 124.98,-124.97 0,-68.57 -49.12,-124.98 -125.46,-124.98zm0.48 53.98c39.88,0 65.17,35.01 65.17,71 0,36.47 -21.88,70.51 -65.17,70.51 -43.27,0 -65.16,-34.04 -65.16,-70.51 0,-35.99 22.37,-71 65.16,-71zm482.88 190.62l0 -128.38c0,-31.6 19.93,-59.33 52.03,-59.33 32.1,0 45.22,26.75 45.22,58.35l0 129.35 59.33 0 0 -129.35c0,-71.96 -33.55,-113.79 -101.64,-113.79 -31.12,0 -58.84,9.73 -80.24,43.77 -13.61,-33.06 -42.3,-44.73 -70.99,-44.73 -22.86,0 -50.57,8.75 -63.22,33.06l-4.38 -29.17 -54.95 0 0 240.22 59.33 0 0 -128.38c0,-31.6 18.96,-60.3 51.06,-60.3 32.58,0 49.12,28.7 49.12,60.3l0 128.38 59.33 0zm552.89 -98.71c9.25,-98.71 -40.84,-148.32 -121.08,-148.32 -77.8,0 -127.4,52.52 -127.4,125.46 0,76.83 49.12,127.89 131.77,127.89 36.48,0 77.8,-12.65 103.1,-38.9l-37.93 -37.44c-13.62,14.1 -42.31,22.37 -64.19,22.37 -41.82,0 -67.59,-21.39 -71.48,-51.06l187.21 0zm-186.24 -49.12c8.76,-31.12 35.01,-46.68 67.11,-46.68 34.04,0 58.35,15.56 62.24,46.68l-129.35 0zm541.23 -96.77c-76.35,0 -124,56.41 -124,124.98 0,69.05 46.68,124.97 124.49,124.97 77.8,0 124.98,-55.92 124.98,-124.97 0,-68.57 -49.12,-124.98 -125.46,-124.98zm0.48 53.98c39.88,0 65.17,35.01 65.17,71 0,36.47 -21.88,70.51 -65.17,70.51 -43.27,0 -65.16,-34.04 -65.16,-70.51 0,-35.99 22.37,-71 65.16,-71zm342.83 190.62l0 -184.3 70.51 0 0 -52.03 -70.51 0 0 -16.05c0,-29.17 15.56,-42.79 35.99,-42.79 12.15,0 23.82,4.38 36.47,12.65l21.88 -44.25c-19.45,-12.65 -41.33,-19.45 -62.24,-19.45 -48.15,0 -91.42,29.66 -91.42,93.85l0 16.05 -44.74 0 0 52.03 44.74 0 0 184.3 59.33 0zm503.3 -214.94c-27.71,-24.32 -55.92,-31.6 -93.37,-31.6 -43.76,0 -101.15,19.45 -101.15,74.89 0,54.46 53.98,70.99 99.21,74.4 34.04,1.94 47.66,8.76 47.66,25.28 0,17.51 -20.92,29.18 -43.28,28.7 -26.74,-0.49 -65.64,-14.6 -82.67,-33.55l-29.17 42.3c35.01,36.48 72.94,42.79 110.87,42.79 68.57,0 103.1,-36.47 103.1,-78.77 0,-63.71 -57.38,-73.91 -102.6,-76.84 -30.64,-1.94 -44.74,-10.7 -44.74,-26.26 0,-15.08 15.56,-23.82 43.77,-23.82 22.86,0 42.31,5.35 59.33,21.39l33.06 -38.9zm171.66 -86.07l0 61.75 -44.74 0 0 51.07 44.74 0 0 103.58c0,59.81 34.04,89.47 86.07,87.52 17.99,-0.48 32.1,-3.4 49.12,-10.21l-16.54 -50.57c-8.75,4.38 -19.45,7.3 -28.69,7.3 -18.48,0 -31.12,-11.19 -31.12,-34.04l0 -103.58 66.63 0 0 -51.07 -66.13 0 0 -68.07 -59.33 6.32zm267.94 61.27l0 239.74 59.33 0 0 -126.44c0,-44.25 28.69,-60.78 59.81,-60.78 19.45,0 30.64,5.35 42.79,15.56l26.75 -51.55c-13.14,-13.13 -36.96,-22.86 -61.76,-22.86 -24.32,0 -49.12,4.38 -67.59,34.04l-4.38 -27.71 -54.95 0zm547.06 141.02c9.25,-98.71 -40.84,-148.32 -121.08,-148.32 -77.8,0 -127.4,52.52 -127.4,125.46 0,76.83 49.12,127.89 131.77,127.89 36.48,0 77.8,-12.65 103.1,-38.9l-37.93 -37.44c-13.62,14.1 -42.31,22.37 -64.19,22.37 -41.82,0 -67.59,-21.39 -71.48,-51.06l187.21 0zm-186.24 -49.12c8.76,-31.12 35.01,-46.68 67.11,-46.68 34.04,0 58.35,15.56 62.24,46.68l-129.35 0zm567.97 49.12c9.25,-98.71 -40.84,-148.32 -121.08,-148.32 -77.8,0 -127.4,52.52 -127.4,125.46 0,76.83 49.12,127.89 131.77,127.89 36.48,0 77.8,-12.65 103.1,-38.9l-37.93 -37.44c-13.62,14.1 -42.31,22.37 -64.19,22.37 -41.82,0 -67.59,-21.39 -71.48,-51.06l187.21 0zm-186.24 -49.12c8.76,-31.12 35.01,-46.68 67.11,-46.68 34.04,0 58.35,15.56 62.24,46.68l-129.35 0zm354.5 -153.18l0 61.75 -44.74 0 0 51.07 44.74 0 0 103.58c0,59.81 34.04,89.47 86.07,87.52 17.99,-0.48 32.1,-3.4 49.12,-10.21l-16.54 -50.57c-8.75,4.38 -19.45,7.3 -28.69,7.3 -18.48,0 -31.12,-11.19 -31.12,-34.04l0 -103.58 66.63 0 0 -51.07 -66.13 0 0 -68.07 -59.33 6.32zm436.2 60.79l-52.03 180.41 -54.96 -180.41 -66.13 0 84.13 241.19 69.05 0 24.81 -71 21.39 -80.24 21.4 80.24 24.8 71 69.05 0 83.63 -241.19 -65.64 0 -54.96 180.41 -52.51 -180.41 -52.03 0zm611.25 141.51c9.25,-98.71 -40.84,-148.32 -121.08,-148.32 -77.8,0 -127.4,52.52 -127.4,125.46 0,76.83 49.12,127.89 131.77,127.89 36.48,0 77.8,-12.65 103.1,-38.9l-37.93 -37.44c-13.62,14.1 -42.31,22.37 -64.19,22.37 -41.82,0 -67.59,-21.39 -71.48,-51.06l187.21 0zm-186.24 -49.12c8.76,-31.12 35.01,-46.68 67.11,-46.68 34.04,0 58.35,15.56 62.24,46.68l-129.35 0zm518.37 -58.84c-13.61,-23.83 -44.25,-38.9 -76.35,-38.9 -70.02,-0.49 -124.97,42.79 -124.97,125.45 0,84.13 52.51,127.89 123.51,127.41 26.75,-0.49 64.19,-14.1 77.8,-42.31l2.92 35.01 55.93 0 0 -239.74 -56.9 0 -1.95 33.07zm-71 14.09c93.37,0 93.37,145.41 0,145.41 -39.38,0 -70.99,-27.23 -70.99,-72.95 0,-45.71 31.6,-72.46 70.99,-72.46zm278.16 -47.17l0 239.74 59.33 0 0 -126.44c0,-44.25 28.69,-60.78 59.81,-60.78 19.45,0 30.64,5.35 42.79,15.56l26.75 -51.55c-13.14,-13.13 -36.96,-22.86 -61.76,-22.86 -24.32,0 -49.12,4.38 -67.59,34.04l-4.38 -27.71 -54.95 0z"/>
   <path class="fil1" d="M1568.11 5778.27l1954.69 0 -1.99 -4.71c-11.89,-24.12 -39.02,-76.44 -39.02,-101.72l0 -21.54 -2018.15 0 104.47 127.96zm2354.67 0l55.7 0c2.64,-4.3 5.16,-8.81 7.56,-13.49l0.55 -1.06 0.59 -1.04c19.97,-34.88 32.12,-73.09 38.75,-112.36l-103.16 0 0 127.96zm397.9 0l3090.25 0 96.45 -127.96 -3176.3 0 0.03 13.41c0,39.61 -3.28,78.05 -10.43,114.55z"/>
  </g>
 </g>
</svg>
